<svg width="338" height="88" viewBox="0 0 338 88" fill="none" xmlns="http://www.w3.org/2000/svg">
<path d="M106.54 28.01C106.54 28.01 106.52 28.01 106.51 28.01C101.71 26.72 96.78 29.2901 95.02 33.8201C94.89 34.1501 94.78 34.48 94.69 34.83C93.46 37.73 90.17 39.3001 87.05 38.2801C84.08 37.3101 82.28 34.1901 82.92 31.1301C83.59 27.9201 86.6 25.8601 89.73 26.2401C90.07 26.3301 90.42 26.4001 90.76 26.4601C95.56 27.2001 100.25 24.2201 101.54 19.4101C101.54 19.4101 101.54 19.3901 101.54 19.3801C102.11 17.0401 101.38 14.57 99.65 12.9C94.67 8.07005 88.44 4.41006 81.26 2.49006C58.82 -3.51994 35.75 9.80004 29.73 32.24C28.4 37.22 28.01 42.23 28.47 47.08C28.58 48.21 29.66 49.0101 30.77 48.7601C33.18 48.2101 35.75 48.22 38.3 48.9C38.65 48.99 39 49.1001 39.34 49.2201C39.52 49.3001 39.7 49.38 39.88 49.46C40.24 49.62 40.61 49.77 40.99 49.9C40.99 49.9 40.99 49.9 40.98 49.9C40.98 49.9 40.98 49.9 40.99 49.9C41.34 50.02 41.69 50.1301 42.05 50.2301C49.81 52.3101 57.78 48.15 60.63 40.83C60.76 40.49 60.88 40.15 60.99 39.8C61.05 39.6 61.11 39.41 61.17 39.21C63.09 34.69 68.1 32.1601 72.97 33.4701C78.32 34.9001 81.49 40.39 80.05 45.74C78.74 50.62 74.05 53.69 69.18 53.09C68.66 52.9501 68.14 52.8401 67.63 52.7601C67.59 52.7601 67.55 52.74 67.5 52.74C59.74 51.55 52.16 56.3701 50.08 64.1401C49.98 64.5001 49.9 64.8601 49.83 65.2201C49.72 65.7701 49.65 66.33 49.6 66.87C49.6 66.91 49.6 66.9401 49.59 66.9801C49.52 67.3301 49.44 67.6801 49.35 68.0401C48.67 70.5901 47.39 72.8301 45.7 74.6301C44.93 75.4601 45.07 76.8 46 77.46C49.97 80.28 54.5 82.4601 59.49 83.7901C81.75 89.7501 105.15 76.2001 111.05 53.9201C112.94 46.7701 112.88 39.56 111.18 32.87C110.59 30.55 108.82 28.71 106.52 28.04L106.54 28.01ZM37.47 45.1301C36.45 44.8601 35.85 43.8101 36.12 42.7901C36.39 41.7701 37.44 41.1701 38.46 41.4401C39.48 41.7101 40.08 42.7601 39.81 43.7801C39.54 44.8001 38.49 45.4001 37.47 45.1301ZM43.14 38.2301C41.11 37.6901 39.9 35.59 40.44 33.5601C40.98 31.5301 43.08 30.3201 45.11 30.8601C47.14 31.4001 48.35 33.5001 47.81 35.5301C47.27 37.5601 45.17 38.7701 43.14 38.2301ZM60.41 63.65C59.39 63.38 58.79 62.3301 59.06 61.3101C59.33 60.2901 60.38 59.69 61.4 59.96C62.42 60.23 63.02 61.28 62.75 62.3C62.48 63.32 61.43 63.92 60.41 63.65Z" fill="white"/>
<path d="M34.28 74.7501C40.2336 74.7501 45.06 69.9238 45.06 63.9701C45.06 58.0165 40.2336 53.1901 34.28 53.1901C28.3264 53.1901 23.5 58.0165 23.5 63.9701C23.5 69.9238 28.3264 74.7501 34.28 74.7501Z" fill="white"/>
<path d="M10.64 75.9201C14.517 75.9201 17.66 72.7771 17.66 68.9001C17.66 65.023 14.517 61.8801 10.64 61.8801C6.76296 61.8801 3.62 65.023 3.62 68.9001C3.62 72.7771 6.76296 75.9201 10.64 75.9201Z" fill="white"/>
<path d="M29.6448 85.0627C32.2031 83.7457 33.2093 80.6041 31.8923 78.0458C30.5752 75.4875 27.4337 74.4813 24.8754 75.7983C22.3171 77.1154 21.3108 80.2569 22.6279 82.8152C23.9449 85.3735 27.0865 86.3798 29.6448 85.0627Z" fill="white"/>
<path d="M122.581 11.8757C125.073 10.437 125.926 7.25063 124.488 4.75872C123.049 2.26682 119.863 1.41302 117.371 2.85172C114.879 4.29042 114.025 7.47682 115.464 9.96872C116.902 12.4606 120.089 13.3144 122.581 11.8757Z" fill="white"/>
<path d="M126.89 19.2501C128.436 19.2501 129.69 17.9965 129.69 16.4501C129.69 14.9037 128.436 13.6501 126.89 13.6501C125.344 13.6501 124.09 14.9037 124.09 16.4501C124.09 17.9965 125.344 19.2501 126.89 19.2501Z" fill="white"/>
<path d="M12.8668 87.347C14.9709 87.326 16.6596 85.6034 16.6387 83.4993C16.6177 81.3952 14.8951 79.7064 12.791 79.7274C10.6869 79.7483 8.99811 81.471 9.01904 83.5751C9.03998 85.6792 10.7627 87.3679 12.8668 87.347Z" fill="white"/>
<path d="M2.42 84.0901C3.75653 84.0901 4.84 83.0067 4.84 81.6701C4.84 80.3336 3.75653 79.2501 2.42 79.2501C1.08347 79.2501 0 80.3336 0 81.6701C0 83.0067 1.08347 84.0901 2.42 84.0901Z" fill="white"/>
<path d="M111.33 26.1601C115.014 26.1601 118 23.1739 118 19.4901C118 15.8064 115.014 12.8201 111.33 12.8201C107.646 12.8201 104.66 15.8064 104.66 19.4901C104.66 23.1739 107.646 26.1601 111.33 26.1601Z" fill="white"/>
<path d="M143.17 39.4202H137.79V10.4601H143.17V39.4202ZM158.57 27.0101H142.76V22.4201H158.57V27.0101ZM158.15 10.4601H163.49V39.4202H158.15V10.4601Z" fill="white"/>
<path d="M178.43 39.4202V27.9601L179.67 31.2301L167.05 10.4601H172.76L182.94 27.2201H179.71L189.85 10.4601H195.15L182.57 31.2301L183.77 27.9601V39.4202H178.43Z" fill="white"/>
<path d="M198.25 39.4202V10.4601H210.17C212.74 10.4601 214.93 10.8701 216.77 11.6801C218.61 12.4901 220.02 13.6701 221.01 15.2201C222 16.7701 222.5 18.6101 222.5 20.7601C222.5 22.9101 222 24.7101 221.01 26.2401C220.02 27.7701 218.6 28.9601 216.77 29.8001C214.94 30.6401 212.74 31.0601 210.17 31.0601H201.27L203.63 28.5801V39.4202H198.25ZM203.63 29.1601L201.27 26.5101H209.92C212.29 26.5101 214.08 26.0101 215.28 25.0001C216.48 23.9901 217.08 22.5801 217.08 20.7601C217.08 18.9401 216.48 17.5301 215.28 16.5201C214.08 15.5101 212.29 15.0101 209.92 15.0101H201.27L203.63 12.3601V29.1601Z" fill="white"/>
<path d="M233.26 34.8701H249.6V39.4202H227.88V10.4601H249.02V15.0101H233.25V34.8701H233.26ZM232.84 22.5001H247.24V26.9301H232.84V22.5001Z" fill="white"/>
<path d="M255.6 39.4202V10.4601H267.52C270.09 10.4601 272.28 10.8701 274.12 11.6801C275.96 12.4901 277.37 13.6701 278.36 15.2201C279.35 16.7701 279.85 18.6101 279.85 20.7601C279.85 22.9101 279.35 24.7101 278.36 26.2201C277.37 27.7401 275.95 28.9101 274.12 29.7401C272.29 30.5701 270.09 30.9801 267.52 30.9801H258.62L260.98 28.5801V39.4202H255.6ZM260.98 29.1601L258.62 26.5501H267.27C269.64 26.5501 271.43 26.0401 272.63 25.0201C273.83 24.0001 274.43 22.5801 274.43 20.7601C274.43 18.9401 273.83 17.5301 272.63 16.5201C271.43 15.5101 269.64 15.0101 267.27 15.0101H258.62L260.98 12.3601V29.1601ZM274.55 39.4202L267.23 28.9101H272.98L280.35 39.4202H274.56H274.55Z" fill="white"/>
<path d="M284.15 30.11V25.72H295.57V30.11H284.15Z" fill="white"/>
<path d="M296.81 39.4202L309.84 10.4601H315.14L328.22 39.4202H322.55L311.38 13.3101H313.53L302.32 39.4202H296.82H296.81ZM302.81 32.7201L304.3 28.5001H319.9L321.35 32.7201H302.81Z" fill="white"/>
<path d="M331.9 39.4202V10.4601H337.28V39.4202H331.9Z" fill="white"/>
<path d="M137.8 54.1701V44.8701H141.14C141.92 44.8701 142.59 44.9901 143.15 45.2401C143.71 45.4901 144.14 45.8401 144.44 46.3101C144.74 46.7801 144.89 47.3401 144.89 48.0001C144.89 48.6601 144.74 49.2001 144.44 49.6701C144.14 50.1401 143.71 50.4901 143.15 50.7501C142.59 51.0001 141.92 51.1301 141.14 51.1301H138.18L138.49 50.8101V54.1701H137.81H137.8ZM138.47 50.8501L138.16 50.5301H141.12C142.12 50.5301 142.88 50.31 143.4 49.86C143.92 49.42 144.18 48.8001 144.18 48.0001C144.18 47.2001 143.92 46.5701 143.4 46.1301C142.88 45.6901 142.12 45.4701 141.12 45.4701H138.16L138.47 45.1401V50.8401V50.8501ZM144.25 54.1701L141.83 50.8H142.6L145.02 54.1701H144.25Z" fill="white"/>
<path d="M149.97 54.2301C149.27 54.2301 148.65 54.0801 148.12 53.7801C147.58 53.4801 147.16 53.0601 146.86 52.5301C146.56 52.0001 146.4 51.3901 146.4 50.7101C146.4 50.0301 146.54 49.4101 146.83 48.8801C147.12 48.3501 147.52 47.9401 148.02 47.6401C148.52 47.3401 149.09 47.1901 149.72 47.1901C150.35 47.1901 150.91 47.3401 151.41 47.6301C151.91 47.9201 152.31 48.3301 152.59 48.8601C152.88 49.3901 153.02 50.0001 153.02 50.6901C153.02 50.7201 153.02 50.7501 153.02 50.7801C153.02 50.8101 153.02 50.8401 153.02 50.8801H146.9V50.3601H152.67L152.4 50.6101C152.4 50.0701 152.3 49.5801 152.06 49.1501C151.83 48.7201 151.51 48.3801 151.11 48.1401C150.71 47.9001 150.25 47.7801 149.73 47.7801C149.21 47.7801 148.76 47.9001 148.35 48.1401C147.95 48.3801 147.63 48.7201 147.4 49.1501C147.17 49.5801 147.05 50.0701 147.05 50.6201V50.7401C147.05 51.3101 147.18 51.8101 147.43 52.2501C147.68 52.6901 148.03 53.0301 148.47 53.2701C148.91 53.5101 149.42 53.6301 149.98 53.6301C150.42 53.6301 150.84 53.5501 151.22 53.3901C151.6 53.2301 151.93 52.9901 152.2 52.6601L152.59 53.1001C152.29 53.4701 151.91 53.7501 151.45 53.9401C150.99 54.1301 150.5 54.2301 149.97 54.2301Z" fill="white"/>
<path d="M156.7 54.17L153.58 47.23H154.28L157.2 53.79H156.88L159.83 47.23H160.51L157.37 54.17H156.69H156.7Z" fill="white"/>
<path d="M164.48 54.2301C163.82 54.2301 163.22 54.0801 162.71 53.7801C162.19 53.4801 161.78 53.0601 161.47 52.5301C161.16 52.0001 161.01 51.3901 161.01 50.7101C161.01 50.0301 161.16 49.4101 161.47 48.8801C161.78 48.3501 162.19 47.9401 162.71 47.6401C163.23 47.3401 163.82 47.1901 164.48 47.1901C165.14 47.1901 165.74 47.3401 166.26 47.6401C166.78 47.9401 167.19 48.3501 167.5 48.8801C167.8 49.4101 167.95 50.0201 167.95 50.7101C167.95 51.4001 167.8 52.0001 167.5 52.5301C167.2 53.0601 166.79 53.4801 166.26 53.7801C165.73 54.0801 165.14 54.2301 164.48 54.2301ZM164.48 53.6301C165.01 53.6301 165.49 53.5101 165.91 53.2701C166.34 53.0301 166.67 52.6801 166.91 52.2401C167.15 51.8001 167.27 51.2901 167.27 50.7101C167.27 50.1301 167.15 49.6101 166.91 49.1801C166.67 48.7401 166.34 48.4001 165.91 48.1601C165.49 47.9201 165.01 47.7901 164.48 47.7901C163.95 47.7901 163.47 47.9101 163.05 48.1601C162.63 48.4101 162.3 48.7401 162.05 49.1801C161.81 49.6201 161.68 50.1301 161.68 50.7101C161.68 51.2901 161.8 51.7901 162.05 52.2401C162.3 52.6901 162.63 53.0301 163.05 53.2701C163.47 53.5101 163.95 53.6301 164.48 53.6301Z" fill="white"/>
<path d="M170.01 54.1701V44.3101H170.67V54.1701H170.01Z" fill="white"/>
<path d="M176.29 54.2301C175.7 54.2301 175.18 54.1201 174.75 53.9001C174.32 53.6801 173.98 53.3601 173.75 52.9201C173.52 52.4801 173.4 51.9401 173.4 51.2901V47.2401H174.06V51.2401C174.06 52.0201 174.26 52.6101 174.66 53.0201C175.06 53.43 175.62 53.6301 176.35 53.6301C176.87 53.6301 177.32 53.52 177.71 53.3C178.09 53.08 178.38 52.77 178.59 52.36C178.79 51.96 178.9 51.4801 178.9 50.9301V47.2401H179.56V54.1801H178.92V52.2501L179.01 52.4801C178.81 53.0201 178.47 53.4501 177.99 53.7601C177.51 54.0701 176.95 54.2301 176.3 54.2301H176.29Z" fill="white"/>
<path d="M181.22 47.81V47.24H185.37V47.81H181.22ZM184.38 54.23C183.77 54.23 183.3 54.06 182.98 53.72C182.66 53.38 182.5 52.92 182.5 52.34V45.72H183.16V52.27C183.16 52.71 183.27 53.05 183.49 53.29C183.71 53.53 184.03 53.65 184.45 53.65C184.87 53.65 185.24 53.52 185.53 53.27L185.81 53.73C185.63 53.9 185.42 54.02 185.17 54.1C184.92 54.18 184.66 54.22 184.39 54.22L184.38 54.23Z" fill="white"/>
<path d="M187.98 45.55C187.83 45.55 187.7 45.5 187.59 45.39C187.48 45.28 187.43 45.16 187.43 45.02C187.43 44.87 187.48 44.74 187.59 44.64C187.7 44.53 187.82 44.48 187.98 44.48C188.14 44.48 188.27 44.53 188.37 44.63C188.47 44.73 188.52 44.86 188.52 45.01C188.52 45.16 188.47 45.29 188.37 45.4C188.27 45.51 188.14 45.56 187.98 45.56V45.55ZM187.65 54.17V47.23H188.31V54.17H187.65Z" fill="white"/>
<path d="M193.83 54.2301C193.17 54.2301 192.57 54.0801 192.06 53.7801C191.54 53.4801 191.13 53.0601 190.82 52.5301C190.51 52.0001 190.36 51.3901 190.36 50.7101C190.36 50.0301 190.51 49.4101 190.82 48.8801C191.13 48.3501 191.54 47.9401 192.06 47.6401C192.58 47.3401 193.17 47.1901 193.83 47.1901C194.49 47.1901 195.09 47.3401 195.61 47.6401C196.13 47.9401 196.54 48.3501 196.85 48.8801C197.15 49.4101 197.3 50.0201 197.3 50.7101C197.3 51.4001 197.15 52.0001 196.85 52.5301C196.55 53.0601 196.14 53.4801 195.61 53.7801C195.08 54.0801 194.49 54.2301 193.83 54.2301ZM193.83 53.6301C194.36 53.6301 194.84 53.5101 195.26 53.2701C195.69 53.0301 196.02 52.6801 196.26 52.2401C196.5 51.8001 196.62 51.2901 196.62 50.7101C196.62 50.1301 196.5 49.6101 196.26 49.1801C196.02 48.7401 195.69 48.4001 195.26 48.1601C194.84 47.9201 194.36 47.7901 193.83 47.7901C193.3 47.7901 192.82 47.9101 192.4 48.1601C191.98 48.4101 191.65 48.7401 191.4 49.1801C191.16 49.6201 191.03 50.1301 191.03 50.7101C191.03 51.2901 191.15 51.7901 191.4 52.2401C191.65 52.6901 191.98 53.0301 192.4 53.2701C192.82 53.5101 193.3 53.6301 193.83 53.6301Z" fill="white"/>
<path d="M202.74 47.1801C203.31 47.1801 203.8 47.2901 204.22 47.5101C204.64 47.7301 204.97 48.0601 205.2 48.4901C205.43 48.9301 205.55 49.4701 205.55 50.1201V54.1701H204.89V50.1701C204.89 49.3901 204.69 48.8001 204.3 48.3901C203.91 47.9801 203.35 47.7801 202.65 47.7801C202.11 47.7801 201.64 47.8901 201.24 48.1101C200.84 48.3301 200.54 48.6401 200.33 49.0401C200.12 49.4401 200.02 49.9201 200.02 50.4801V54.1701H199.36V47.2301H200V49.1601L199.91 48.9501C200.12 48.4001 200.47 47.9701 200.96 47.6501C201.45 47.3301 202.05 47.1801 202.75 47.1801H202.74Z" fill="white"/>
<path d="M208.63 45.55C208.48 45.55 208.35 45.5 208.24 45.39C208.13 45.28 208.08 45.16 208.08 45.02C208.08 44.87 208.13 44.74 208.24 44.64C208.35 44.53 208.47 44.48 208.63 44.48C208.79 44.48 208.92 44.53 209.02 44.63C209.12 44.73 209.17 44.86 209.17 45.01C209.17 45.16 209.12 45.29 209.02 45.4C208.92 45.51 208.79 45.56 208.63 45.56V45.55ZM208.3 54.17V47.23H208.96V54.17H208.3Z" fill="white"/>
<path d="M213.52 54.2301C212.94 54.2301 212.41 54.1501 211.91 53.9801C211.41 53.8101 211.02 53.6001 210.75 53.3401L211.06 52.8101C211.33 53.0401 211.68 53.2401 212.12 53.4001C212.56 53.5601 213.04 53.6501 213.56 53.6501C214.29 53.6501 214.81 53.5301 215.13 53.2901C215.45 53.0501 215.61 52.7401 215.61 52.3501C215.61 52.0701 215.53 51.8401 215.36 51.6801C215.19 51.5201 214.98 51.3901 214.7 51.3001C214.43 51.2101 214.12 51.1401 213.8 51.0801C213.47 51.0201 213.14 50.9601 212.82 50.8901C212.49 50.8201 212.19 50.7201 211.92 50.5801C211.65 50.4401 211.43 50.2601 211.26 50.0301C211.1 49.8001 211.01 49.4801 211.01 49.0901C211.01 48.7401 211.11 48.4201 211.3 48.1301C211.5 47.8501 211.79 47.6201 212.18 47.4401C212.57 47.2701 213.06 47.1801 213.64 47.1801C214.07 47.1801 214.51 47.2401 214.95 47.3701C215.39 47.4901 215.75 47.6601 216.02 47.8601L215.71 48.3901C215.42 48.1701 215.09 48.0101 214.73 47.9101C214.37 47.8101 214 47.7601 213.63 47.7601C212.96 47.7601 212.46 47.8801 212.15 48.1301C211.84 48.3801 211.68 48.6901 211.68 49.0601C211.68 49.3501 211.76 49.5901 211.93 49.7601C212.09 49.9301 212.31 50.0701 212.59 50.1601C212.87 50.2501 213.17 50.3301 213.49 50.3901C213.82 50.4501 214.15 50.5101 214.47 50.5801C214.8 50.6501 215.1 50.7501 215.37 50.8801C215.64 51.0101 215.86 51.1901 216.03 51.4101C216.2 51.6301 216.28 51.9401 216.28 52.3201C216.28 52.7001 216.18 53.0301 215.97 53.3201C215.76 53.6101 215.45 53.8301 215.05 53.9801C214.64 54.1401 214.14 54.2201 213.55 54.2201L213.52 54.2301Z" fill="white"/>
<path d="M218.45 45.55C218.3 45.55 218.17 45.5 218.06 45.39C217.95 45.28 217.9 45.16 217.9 45.02C217.9 44.87 217.95 44.74 218.06 44.64C218.17 44.53 218.29 44.48 218.45 44.48C218.61 44.48 218.74 44.53 218.84 44.63C218.94 44.73 218.99 44.86 218.99 45.01C218.99 45.16 218.94 45.29 218.84 45.4C218.74 45.51 218.61 45.56 218.45 45.56V45.55ZM218.12 54.17V47.23H218.78V54.17H218.12Z" fill="white"/>
<path d="M224.97 47.1801C225.54 47.1801 226.03 47.2901 226.45 47.5101C226.87 47.7301 227.2 48.0601 227.43 48.4901C227.66 48.9301 227.78 49.4701 227.78 50.1201V54.1701H227.12V50.1701C227.12 49.3901 226.92 48.8001 226.53 48.3901C226.14 47.9801 225.58 47.7801 224.88 47.7801C224.34 47.7801 223.87 47.8901 223.47 48.1101C223.07 48.3301 222.77 48.6401 222.56 49.0401C222.35 49.4401 222.25 49.9201 222.25 50.4801V54.1701H221.59V47.2301H222.23V49.1601L222.14 48.9501C222.35 48.4001 222.7 47.9701 223.19 47.6501C223.68 47.3301 224.28 47.1801 224.98 47.1801H224.97Z" fill="white"/>
<path d="M233.23 53.9201C232.57 53.9201 231.99 53.7801 231.47 53.4901C230.95 53.2001 230.54 52.8001 230.23 52.2901C229.92 51.7801 229.77 51.2001 229.77 50.5401C229.77 49.8801 229.92 49.2901 230.23 48.7901C230.54 48.2801 230.95 47.8901 231.47 47.6101C231.99 47.3301 232.57 47.1801 233.23 47.1801C233.89 47.1801 234.42 47.3101 234.92 47.5901C235.42 47.8601 235.82 48.2501 236.11 48.7501C236.4 49.2501 236.55 49.8501 236.55 50.5501C236.55 51.2501 236.4 51.8401 236.11 52.3401C235.82 52.8501 235.42 53.2401 234.92 53.5101C234.42 53.7801 233.86 53.9201 233.23 53.9201ZM233.41 56.8001C232.78 56.8001 232.18 56.7001 231.62 56.5101C231.05 56.3101 230.59 56.0501 230.24 55.7001L230.6 55.2001C230.95 55.5201 231.36 55.7701 231.84 55.9401C232.32 56.1201 232.84 56.2101 233.4 56.2101C234.33 56.2101 235.01 55.9901 235.45 55.5601C235.89 55.1301 236.11 54.4401 236.11 53.5101V51.5801L236.24 50.5401L236.13 49.5001V47.2301H236.77V53.4201C236.77 54.5801 236.49 55.4301 235.93 55.9801C235.37 56.5201 234.53 56.8001 233.41 56.8001ZM233.28 53.3201C233.84 53.3201 234.33 53.2001 234.76 52.9701C235.19 52.7401 235.52 52.4101 235.76 51.9901C236 51.5701 236.12 51.0901 236.12 50.5501C236.12 50.0101 236 49.5201 235.76 49.1001C235.52 48.6801 235.18 48.3601 234.76 48.1301C234.33 47.9001 233.84 47.7801 233.28 47.7801C232.72 47.7801 232.25 47.9001 231.83 48.1301C231.4 48.3601 231.06 48.6801 230.82 49.1001C230.58 49.5201 230.45 50.0001 230.45 50.5501C230.45 51.1001 230.57 51.5701 230.82 51.9901C231.06 52.4101 231.4 52.7401 231.83 52.9701C232.26 53.2001 232.74 53.3201 233.28 53.3201Z" fill="white"/>
<path d="M243.01 54.1701V44.3101H243.67V49.4801L243.54 50.6901L243.65 51.9001V54.1701H243.01ZM246.49 54.2301C245.88 54.2301 245.33 54.0901 244.84 53.8001C244.35 53.5101 243.96 53.1101 243.67 52.5801C243.38 52.0501 243.24 51.4201 243.24 50.7101C243.24 50.0001 243.38 49.3501 243.67 48.8201C243.96 48.3001 244.35 47.8901 244.84 47.6101C245.33 47.3301 245.88 47.1801 246.49 47.1801C247.15 47.1801 247.73 47.3301 248.25 47.6301C248.77 47.9301 249.18 48.3401 249.47 48.8701C249.77 49.4001 249.92 50.0101 249.92 50.7101C249.92 51.4101 249.77 52.0101 249.47 52.5401C249.17 53.0701 248.77 53.4901 248.25 53.7801C247.73 54.0801 247.14 54.2301 246.49 54.2301ZM246.45 53.6301C246.98 53.6301 247.46 53.5101 247.89 53.2701C248.31 53.0301 248.65 52.6801 248.89 52.2401C249.13 51.8001 249.25 51.2901 249.25 50.7101C249.25 50.1301 249.13 49.6101 248.89 49.1801C248.65 48.7401 248.31 48.4001 247.89 48.1601C247.46 47.9201 246.99 47.7901 246.45 47.7901C245.91 47.7901 245.44 47.9101 245.02 48.1601C244.6 48.4001 244.27 48.7401 244.02 49.1801C243.78 49.6201 243.65 50.1301 243.65 50.7101C243.65 51.2901 243.77 51.7901 244.02 52.2401C244.27 52.6901 244.6 53.0301 245.02 53.2701C245.44 53.5101 245.92 53.6301 246.45 53.6301Z" fill="white"/>
<path d="M252.31 45.55C252.16 45.55 252.03 45.5 251.92 45.39C251.81 45.28 251.76 45.16 251.76 45.02C251.76 44.87 251.81 44.74 251.92 44.64C252.03 44.53 252.15 44.48 252.31 44.48C252.47 44.48 252.6 44.53 252.7 44.63C252.8 44.73 252.85 44.86 252.85 45.01C252.85 45.16 252.8 45.29 252.7 45.4C252.6 45.51 252.47 45.56 252.31 45.56V45.55ZM251.98 54.17V47.23H252.64V54.17H251.98Z" fill="white"/>
<path d="M258.14 53.9201C257.48 53.9201 256.9 53.7801 256.38 53.4901C255.86 53.2001 255.45 52.8001 255.14 52.2901C254.83 51.7801 254.68 51.2001 254.68 50.5401C254.68 49.8801 254.83 49.2901 255.14 48.7901C255.45 48.2801 255.86 47.8901 256.38 47.6101C256.9 47.3301 257.48 47.1801 258.14 47.1801C258.8 47.1801 259.33 47.3101 259.83 47.5901C260.33 47.8601 260.73 48.2501 261.02 48.7501C261.31 49.2501 261.46 49.8501 261.46 50.5501C261.46 51.2501 261.31 51.8401 261.02 52.3401C260.73 52.8501 260.33 53.2401 259.83 53.5101C259.33 53.7801 258.77 53.9201 258.14 53.9201ZM258.33 56.8001C257.7 56.8001 257.1 56.7001 256.54 56.5101C255.97 56.3101 255.51 56.0501 255.16 55.7001L255.52 55.2001C255.87 55.5201 256.28 55.7701 256.76 55.9401C257.24 56.1201 257.76 56.2101 258.32 56.2101C259.25 56.2101 259.93 55.9901 260.37 55.5601C260.81 55.1301 261.03 54.4401 261.03 53.5101V51.5801L261.16 50.5401L261.05 49.5001V47.2301H261.69V53.4201C261.69 54.5801 261.41 55.4301 260.85 55.9801C260.29 56.5201 259.45 56.8001 258.33 56.8001ZM258.19 53.3201C258.75 53.3201 259.24 53.2001 259.67 52.9701C260.1 52.7401 260.43 52.4101 260.67 51.9901C260.91 51.5701 261.03 51.0901 261.03 50.5501C261.03 50.0101 260.91 49.5201 260.67 49.1001C260.43 48.6801 260.09 48.3601 259.67 48.1301C259.24 47.9001 258.75 47.7801 258.19 47.7801C257.63 47.7801 257.16 47.9001 256.74 48.1301C256.31 48.3601 255.97 48.6801 255.73 49.1001C255.49 49.5201 255.36 50.0001 255.36 50.5501C255.36 51.1001 255.48 51.5701 255.73 51.9901C255.97 52.4101 256.31 52.7401 256.74 52.9701C257.17 53.2001 257.65 53.3201 258.19 53.3201Z" fill="white"/>
<path d="M270.59 54.2301C269.94 54.2301 269.36 54.0801 268.84 53.7801C268.32 53.4801 267.91 53.0701 267.61 52.5401C267.31 52.0101 267.16 51.4001 267.16 50.7101C267.16 50.0201 267.31 49.4001 267.61 48.8701C267.91 48.3401 268.32 47.9301 268.84 47.6301C269.36 47.3301 269.94 47.1801 270.59 47.1801C271.2 47.1801 271.75 47.3201 272.24 47.6101C272.73 47.9001 273.12 48.3001 273.41 48.8201C273.7 49.3401 273.84 49.9701 273.84 50.7101C273.84 51.4501 273.7 52.0501 273.42 52.5801C273.14 53.1101 272.75 53.5201 272.26 53.8001C271.77 54.0801 271.21 54.2301 270.59 54.2301ZM270.63 53.6301C271.16 53.6301 271.64 53.5101 272.06 53.2701C272.48 53.0301 272.81 52.6801 273.06 52.2401C273.31 51.8001 273.43 51.2901 273.43 50.7101C273.43 50.1301 273.31 49.6101 273.06 49.1801C272.82 48.7401 272.48 48.4001 272.06 48.1601C271.64 47.9201 271.16 47.7901 270.63 47.7901C270.1 47.7901 269.62 47.9101 269.2 48.1601C268.78 48.4101 268.45 48.7401 268.2 49.1801C267.96 49.6201 267.83 50.1301 267.83 50.7101C267.83 51.2901 267.95 51.7901 268.2 52.2401C268.45 52.6901 268.78 53.0301 269.2 53.2701C269.62 53.5101 270.1 53.6301 270.63 53.6301ZM273.43 54.1701V51.9001L273.55 50.6901L273.42 49.4801V44.3101H274.08V54.1701H273.43Z" fill="white"/>
<path d="M278.76 54.2301C278.25 54.2301 277.8 54.1501 277.42 53.9801C277.04 53.8201 276.75 53.5801 276.56 53.2801C276.37 52.9801 276.26 52.6301 276.26 52.2401C276.26 51.8901 276.34 51.5601 276.51 51.2801C276.67 50.9901 276.95 50.7601 277.33 50.5801C277.71 50.4001 278.22 50.3101 278.86 50.3101H281.41V50.8301H278.87C278.15 50.8301 277.65 50.9601 277.36 51.2301C277.07 51.5001 276.93 51.8301 276.93 52.2301C276.93 52.6701 277.1 53.0301 277.43 53.2901C277.77 53.5601 278.24 53.6901 278.85 53.6901C279.46 53.6901 279.93 53.5601 280.33 53.2901C280.73 53.0201 281.03 52.6401 281.23 52.1301L281.42 52.5801C281.23 53.0801 280.92 53.4901 280.47 53.7801C280.02 54.0801 279.45 54.2301 278.76 54.2301ZM281.26 54.1701V52.5901L281.23 52.3501V49.7501C281.23 49.1001 281.06 48.6101 280.71 48.2701C280.36 47.9301 279.85 47.7701 279.18 47.7701C278.7 47.7701 278.26 47.8501 277.84 48.0201C277.43 48.1801 277.08 48.3901 276.78 48.6501L276.45 48.1701C276.8 47.8601 277.21 47.6201 277.7 47.4501C278.19 47.2801 278.7 47.1901 279.23 47.1901C280.09 47.1901 280.75 47.4101 281.21 47.8401C281.67 48.2701 281.9 48.9201 281.9 49.7801V54.1801H281.26V54.1701Z" fill="white"/>
<path d="M283.49 47.81V47.24H287.64V47.81H283.49ZM286.66 54.23C286.05 54.23 285.58 54.06 285.26 53.72C284.94 53.38 284.78 52.92 284.78 52.34V45.72H285.44V52.27C285.44 52.71 285.55 53.05 285.77 53.29C285.99 53.53 286.31 53.65 286.73 53.65C287.15 53.65 287.52 53.52 287.81 53.27L288.09 53.73C287.91 53.9 287.7 54.02 287.45 54.1C287.2 54.18 286.94 54.22 286.67 54.22L286.66 54.23Z" fill="white"/>
<path d="M291.8 54.2301C291.29 54.2301 290.84 54.1501 290.46 53.9801C290.08 53.8201 289.79 53.5801 289.6 53.2801C289.41 52.9801 289.3 52.6301 289.3 52.2401C289.3 51.8901 289.38 51.5601 289.55 51.2801C289.71 50.9901 289.99 50.7601 290.37 50.5801C290.75 50.4001 291.26 50.3101 291.9 50.3101H294.45V50.8301H291.91C291.19 50.8301 290.69 50.9601 290.4 51.2301C290.11 51.5001 289.97 51.8301 289.97 52.2301C289.97 52.6701 290.14 53.0301 290.47 53.2901C290.81 53.5601 291.28 53.6901 291.89 53.6901C292.5 53.6901 292.97 53.5601 293.37 53.2901C293.77 53.0201 294.07 52.6401 294.27 52.1301L294.46 52.5801C294.27 53.0801 293.96 53.4901 293.51 53.7801C293.06 54.0801 292.49 54.2301 291.8 54.2301ZM294.3 54.1701V52.5901L294.27 52.3501V49.7501C294.27 49.1001 294.1 48.6101 293.75 48.2701C293.4 47.9301 292.89 47.7701 292.22 47.7701C291.74 47.7701 291.3 47.8501 290.88 48.0201C290.47 48.1801 290.12 48.3901 289.82 48.6501L289.49 48.1701C289.84 47.8601 290.25 47.6201 290.74 47.4501C291.23 47.2801 291.74 47.1901 292.27 47.1901C293.13 47.1901 293.79 47.4101 294.25 47.8401C294.71 48.2701 294.94 48.9201 294.94 49.7801V54.1801H294.3V54.1701Z" fill="white"/>
<path d="M140.29 67.4201C139.78 67.4201 139.33 67.3401 138.95 67.1701C138.57 67.0101 138.28 66.7701 138.09 66.4701C137.9 66.1701 137.79 65.8201 137.79 65.4301C137.79 65.0801 137.87 64.7501 138.04 64.4701C138.2 64.1801 138.48 63.9501 138.86 63.7701C139.24 63.59 139.75 63.5001 140.39 63.5001H142.94V64.0201H140.4C139.68 64.0201 139.18 64.1501 138.89 64.4201C138.6 64.6901 138.46 65.0201 138.46 65.4201C138.46 65.8601 138.63 66.2201 138.96 66.4801C139.3 66.7501 139.77 66.8801 140.38 66.8801C140.99 66.8801 141.46 66.7501 141.86 66.4801C142.26 66.2101 142.56 65.8301 142.76 65.3201L142.95 65.7701C142.76 66.2701 142.45 66.6801 142 66.9701C141.55 67.2701 140.98 67.4201 140.29 67.4201ZM142.79 67.3701V65.7901L142.76 65.55V62.9501C142.76 62.3001 142.59 61.8101 142.24 61.4701C141.89 61.1301 141.38 60.9701 140.71 60.9701C140.23 60.9701 139.79 61.0501 139.37 61.2201C138.96 61.3801 138.61 61.5901 138.31 61.8501L137.98 61.3701C138.33 61.0601 138.74 60.8201 139.23 60.6501C139.72 60.4801 140.23 60.3901 140.76 60.3901C141.62 60.3901 142.28 60.6101 142.74 61.0401C143.2 61.4701 143.43 62.1201 143.43 62.9801V67.3801H142.79V67.3701Z" fill="white"/>
<path d="M146.17 69.9501V60.4401H146.81V62.7101L146.7 63.9201L146.83 65.1301V69.9501H146.17ZM149.65 67.4201C149.04 67.4201 148.49 67.2801 148 66.9901C147.51 66.7001 147.12 66.3 146.83 65.7701C146.54 65.2401 146.4 64.6201 146.4 63.8901C146.4 63.1601 146.54 62.5401 146.83 62.0101C147.12 61.4801 147.51 61.0801 148 60.7901C148.49 60.5001 149.04 60.36 149.65 60.36C150.31 60.36 150.89 60.5101 151.41 60.8101C151.93 61.1101 152.34 61.52 152.63 62.05C152.93 62.58 153.08 63.1901 153.08 63.8801C153.08 64.5701 152.93 65.1801 152.63 65.7101C152.33 66.2401 151.93 66.6601 151.41 66.9501C150.89 67.2501 150.3 67.4001 149.65 67.4001V67.4201ZM149.61 66.8201C150.14 66.8201 150.62 66.7001 151.05 66.4601C151.47 66.2201 151.81 65.8701 152.05 65.4301C152.29 64.9901 152.41 64.4801 152.41 63.9001C152.41 63.3201 152.29 62.8001 152.05 62.3701C151.81 61.9301 151.47 61.5901 151.05 61.3501C150.62 61.1101 150.15 60.9801 149.61 60.9801C149.07 60.9801 148.6 61.1001 148.18 61.3501C147.76 61.5901 147.43 61.9301 147.18 62.3701C146.94 62.8101 146.81 63.3201 146.81 63.9001C146.81 64.4801 146.93 64.9801 147.18 65.4301C147.43 65.8801 147.76 66.2201 148.18 66.4601C148.6 66.7001 149.08 66.8201 149.61 66.8201Z" fill="white"/>
<path d="M155.14 69.9501V60.4401H155.78V62.7101L155.67 63.9201L155.8 65.1301V69.9501H155.14ZM158.62 67.4201C158.01 67.4201 157.46 67.2801 156.97 66.9901C156.48 66.7001 156.09 66.3 155.8 65.7701C155.51 65.2401 155.37 64.6201 155.37 63.8901C155.37 63.1601 155.51 62.5401 155.8 62.0101C156.09 61.4801 156.48 61.0801 156.97 60.7901C157.46 60.5001 158.01 60.36 158.62 60.36C159.28 60.36 159.86 60.5101 160.38 60.8101C160.9 61.1101 161.31 61.52 161.6 62.05C161.9 62.58 162.05 63.1901 162.05 63.8801C162.05 64.5701 161.9 65.1801 161.6 65.7101C161.3 66.2401 160.9 66.6601 160.38 66.9501C159.86 67.2501 159.27 67.4001 158.62 67.4001V67.4201ZM158.58 66.8201C159.11 66.8201 159.59 66.7001 160.02 66.4601C160.44 66.2201 160.78 65.8701 161.02 65.4301C161.26 64.9901 161.38 64.4801 161.38 63.9001C161.38 63.3201 161.26 62.8001 161.02 62.3701C160.78 61.9301 160.44 61.5901 160.02 61.3501C159.59 61.1101 159.12 60.9801 158.58 60.9801C158.04 60.9801 157.57 61.1001 157.15 61.3501C156.73 61.5901 156.4 61.9301 156.15 62.3701C155.91 62.8101 155.78 63.3201 155.78 63.9001C155.78 64.4801 155.9 64.9801 156.15 65.4301C156.4 65.8801 156.73 66.2201 157.15 66.4601C157.57 66.7001 158.05 66.8201 158.58 66.8201Z" fill="white"/>
<path d="M164.1 67.3701V57.5101H164.76V67.3701H164.1Z" fill="white"/>
<path d="M167.9 58.7501C167.75 58.7501 167.62 58.7001 167.51 58.5901C167.4 58.4801 167.35 58.3601 167.35 58.2201C167.35 58.0701 167.4 57.9401 167.51 57.8401C167.62 57.7301 167.74 57.6801 167.9 57.6801C168.06 57.6801 168.19 57.7301 168.29 57.8301C168.39 57.9301 168.44 58.0601 168.44 58.2101C168.44 58.3601 168.39 58.4901 168.29 58.6001C168.19 58.7101 168.06 58.7601 167.9 58.7601V58.7501ZM167.57 67.3701V60.4301H168.23V67.3701H167.57Z" fill="white"/>
<path d="M173.79 67.4201C173.12 67.4201 172.52 67.2701 171.99 66.9701C171.46 66.6701 171.05 66.2501 170.74 65.7201C170.43 65.1901 170.28 64.5801 170.28 63.9001C170.28 63.2201 170.43 62.6001 170.74 62.0701C171.05 61.5401 171.46 61.13 171.99 60.83C172.52 60.53 173.12 60.3801 173.79 60.3801C174.35 60.3801 174.85 60.4901 175.31 60.7001C175.77 60.9101 176.14 61.2301 176.42 61.6601L175.93 62.0201C175.68 61.6701 175.37 61.4001 175 61.2401C174.63 61.0801 174.22 60.9901 173.79 60.9901C173.25 60.9901 172.76 61.11 172.34 61.36C171.91 61.6 171.57 61.9401 171.33 62.3801C171.09 62.8201 170.96 63.3301 170.96 63.9101C170.96 64.4901 171.08 65.0101 171.33 65.4401C171.58 65.8701 171.91 66.2201 172.34 66.4601C172.77 66.7001 173.25 66.8201 173.79 66.8201C174.22 66.8201 174.63 66.7401 175 66.5701C175.37 66.4001 175.68 66.1401 175.93 65.7901L176.42 66.1501C176.14 66.5801 175.77 66.89 175.31 67.11C174.85 67.32 174.35 67.4301 173.79 67.4301V67.4201Z" fill="white"/>
<path d="M180.29 67.4201C179.78 67.4201 179.33 67.3401 178.95 67.1701C178.57 67.0101 178.28 66.7701 178.09 66.4701C177.9 66.1701 177.79 65.8201 177.79 65.4301C177.79 65.0801 177.87 64.7501 178.04 64.4701C178.2 64.1801 178.48 63.9501 178.86 63.7701C179.24 63.59 179.75 63.5001 180.39 63.5001H182.94V64.0201H180.4C179.68 64.0201 179.18 64.1501 178.89 64.4201C178.6 64.6901 178.46 65.0201 178.46 65.4201C178.46 65.8601 178.63 66.2201 178.96 66.4801C179.3 66.7501 179.77 66.8801 180.38 66.8801C180.99 66.8801 181.46 66.7501 181.86 66.4801C182.26 66.2101 182.56 65.8301 182.76 65.3201L182.95 65.7701C182.76 66.2701 182.45 66.6801 182 66.9701C181.55 67.2701 180.98 67.4201 180.29 67.4201ZM182.79 67.3701V65.7901L182.76 65.55V62.9501C182.76 62.3001 182.59 61.8101 182.24 61.4701C181.89 61.1301 181.38 60.9701 180.71 60.9701C180.23 60.9701 179.79 61.0501 179.37 61.2201C178.96 61.3801 178.61 61.5901 178.31 61.8501L177.98 61.3701C178.33 61.0601 178.74 60.8201 179.23 60.6501C179.72 60.4801 180.23 60.3901 180.76 60.3901C181.62 60.3901 182.28 60.6101 182.74 61.0401C183.2 61.4701 183.43 62.1201 183.43 62.9801V67.3801H182.79V67.3701Z" fill="white"/>
<path d="M185.02 61.0001V60.4301H189.17V61.0001H185.02ZM188.18 67.4201C187.57 67.4201 187.1 67.2501 186.78 66.9101C186.46 66.5701 186.3 66.1101 186.3 65.5301V58.9101H186.96V65.4601C186.96 65.9001 187.07 66.2401 187.29 66.4801C187.51 66.7201 187.83 66.8401 188.25 66.8401C188.67 66.8401 189.04 66.7101 189.33 66.4601L189.61 66.9201C189.43 67.0901 189.22 67.2101 188.97 67.2901C188.72 67.3701 188.46 67.4101 188.19 67.4101L188.18 67.4201Z" fill="white"/>
<path d="M191.78 58.7501C191.63 58.7501 191.5 58.7001 191.39 58.5901C191.28 58.4801 191.23 58.3601 191.23 58.2201C191.23 58.0701 191.28 57.9401 191.39 57.8401C191.5 57.7301 191.62 57.6801 191.78 57.6801C191.94 57.6801 192.07 57.7301 192.17 57.8301C192.27 57.9301 192.32 58.0601 192.32 58.2101C192.32 58.3601 192.27 58.4901 192.17 58.6001C192.07 58.7101 191.94 58.7601 191.78 58.7601V58.7501ZM191.45 67.3701V60.4301H192.11V67.3701H191.45Z" fill="white"/>
<path d="M197.63 67.4201C196.97 67.4201 196.37 67.2701 195.86 66.9701C195.34 66.6701 194.93 66.2501 194.62 65.7201C194.31 65.1901 194.16 64.5801 194.16 63.9001C194.16 63.2201 194.31 62.6001 194.62 62.0701C194.93 61.5401 195.34 61.13 195.86 60.83C196.38 60.53 196.97 60.3801 197.63 60.3801C198.29 60.3801 198.89 60.53 199.41 60.83C199.93 61.13 200.34 61.5401 200.65 62.0701C200.95 62.6001 201.1 63.2101 201.1 63.9001C201.1 64.5901 200.95 65.1901 200.65 65.7201C200.35 66.2501 199.94 66.6701 199.41 66.9701C198.88 67.2701 198.29 67.4201 197.63 67.4201ZM197.63 66.8201C198.16 66.8201 198.64 66.7001 199.06 66.4601C199.49 66.2201 199.82 65.8701 200.06 65.4301C200.3 64.9901 200.42 64.4801 200.42 63.9001C200.42 63.3201 200.3 62.8001 200.06 62.3701C199.82 61.9301 199.49 61.5901 199.06 61.3501C198.64 61.1101 198.16 60.9801 197.63 60.9801C197.1 60.9801 196.62 61.1001 196.2 61.3501C195.78 61.6001 195.45 61.9301 195.2 62.3701C194.96 62.8101 194.83 63.3201 194.83 63.9001C194.83 64.4801 194.95 64.9801 195.2 65.4301C195.45 65.8801 195.78 66.2201 196.2 66.4601C196.62 66.7001 197.1 66.8201 197.63 66.8201Z" fill="white"/>
<path d="M206.54 60.3801C207.11 60.3801 207.6 60.4901 208.02 60.7101C208.44 60.9301 208.77 61.2601 209 61.6901C209.23 62.1301 209.35 62.6701 209.35 63.3201V67.3701H208.69V63.3701C208.69 62.5901 208.49 62.0001 208.1 61.5901C207.71 61.1801 207.15 60.9801 206.45 60.9801C205.91 60.9801 205.44 61.0901 205.04 61.3101C204.64 61.5301 204.34 61.8401 204.13 62.2401C203.92 62.6401 203.82 63.1201 203.82 63.6801V67.3701H203.16V60.4301H203.8V62.36L203.71 62.1501C203.92 61.6001 204.27 61.1701 204.76 60.8501C205.25 60.5301 205.85 60.3801 206.55 60.3801H206.54Z" fill="white"/>
<path d="M213.85 67.4201C213.27 67.4201 212.74 67.3401 212.24 67.1701C211.74 67.0001 211.35 66.7901 211.08 66.5301L211.39 66.0001C211.66 66.2301 212.01 66.4301 212.45 66.5901C212.89 66.7501 213.37 66.8401 213.89 66.8401C214.62 66.8401 215.14 66.7201 215.46 66.4801C215.78 66.2401 215.94 65.9301 215.94 65.5401C215.94 65.2601 215.86 65.0301 215.69 64.8701C215.52 64.7101 215.31 64.5801 215.03 64.4901C214.76 64.4001 214.45 64.33 214.13 64.2701C213.8 64.2101 213.47 64.15 213.15 64.08C212.82 64.01 212.52 63.9101 212.25 63.7701C211.98 63.63 211.76 63.4501 211.59 63.2201C211.43 62.9901 211.34 62.6701 211.34 62.2801C211.34 61.9301 211.44 61.6101 211.63 61.3201C211.83 61.0401 212.12 60.8101 212.51 60.6301C212.9 60.4601 213.39 60.3701 213.97 60.3701C214.4 60.3701 214.84 60.4301 215.28 60.5601C215.72 60.6801 216.08 60.85 216.35 61.05L216.04 61.58C215.75 61.36 215.42 61.2001 215.06 61.1001C214.7 61.0001 214.33 60.9501 213.96 60.9501C213.29 60.9501 212.79 61.0701 212.48 61.3201C212.17 61.5701 212.01 61.8801 212.01 62.2501C212.01 62.5401 212.09 62.7801 212.26 62.9501C212.42 63.1201 212.64 63.2601 212.92 63.3501C213.2 63.4401 213.5 63.52 213.82 63.58C214.15 63.64 214.48 63.7001 214.8 63.7701C215.13 63.84 215.43 63.9401 215.7 64.0701C215.97 64.2001 216.19 64.3801 216.36 64.6001C216.53 64.8201 216.61 65.1301 216.61 65.5101C216.61 65.8901 216.51 66.2201 216.3 66.5101C216.09 66.8001 215.78 67.0201 215.38 67.1701C214.97 67.3301 214.47 67.4101 213.88 67.4101L213.85 67.4201Z" fill="white"/>
<path d="M223.22 67.3701L220.59 60.4301H221.23L223.68 66.9901H223.4L225.91 60.4301H226.48L228.98 66.9901H228.69L231.18 60.4301H231.79L229.16 67.3701H228.54L226.09 61.0701H226.3L223.84 67.3701H223.23H223.22Z" fill="white"/>
<path d="M233.65 58.7501C233.5 58.7501 233.37 58.7001 233.26 58.5901C233.15 58.4801 233.1 58.3601 233.1 58.2201C233.1 58.0701 233.15 57.9401 233.26 57.8401C233.37 57.7301 233.49 57.6801 233.65 57.6801C233.81 57.6801 233.94 57.7301 234.04 57.8301C234.14 57.9301 234.19 58.0601 234.19 58.2101C234.19 58.3601 234.14 58.4901 234.04 58.6001C233.94 58.7101 233.81 58.7601 233.65 58.7601V58.7501ZM233.32 67.3701V60.4301H233.98V67.3701H233.32Z" fill="white"/>
<path d="M235.64 61.0001V60.4301H239.79V61.0001H235.64ZM238.81 67.4201C238.2 67.4201 237.73 67.2501 237.41 66.9101C237.09 66.5701 236.93 66.1101 236.93 65.5301V58.9101H237.59V65.4601C237.59 65.9001 237.7 66.2401 237.92 66.4801C238.14 66.7201 238.46 66.8401 238.88 66.8401C239.3 66.8401 239.67 66.7101 239.96 66.4601L240.24 66.9201C240.06 67.0901 239.85 67.2101 239.6 67.2901C239.35 67.3701 239.09 67.4101 238.82 67.4101L238.81 67.4201Z" fill="white"/>
<path d="M245.46 60.3801C246.03 60.3801 246.52 60.4901 246.94 60.7101C247.36 60.9301 247.69 61.2601 247.92 61.6901C248.15 62.1301 248.27 62.6701 248.27 63.3201V67.3701H247.61V63.3701C247.61 62.5901 247.41 62.0001 247.02 61.5901C246.63 61.1801 246.07 60.9801 245.37 60.9801C244.83 60.9801 244.36 61.0901 243.96 61.3101C243.56 61.5301 243.26 61.8401 243.05 62.2401C242.84 62.6401 242.74 63.1201 242.74 63.6801V67.3701H242.08V57.5101H242.74V62.36L242.62 62.1501C242.83 61.6001 243.18 61.1701 243.67 60.8501C244.16 60.5301 244.76 60.3801 245.46 60.3801Z" fill="white"/>
<path d="M256.31 67.4201C255.8 67.4201 255.35 67.3401 254.97 67.1701C254.59 67.0101 254.3 66.7701 254.11 66.4701C253.92 66.1701 253.81 65.8201 253.81 65.4301C253.81 65.0801 253.89 64.7501 254.06 64.4701C254.22 64.1801 254.5 63.9501 254.88 63.7701C255.26 63.59 255.77 63.5001 256.41 63.5001H258.96V64.0201H256.42C255.7 64.0201 255.2 64.1501 254.91 64.4201C254.62 64.6901 254.48 65.0201 254.48 65.4201C254.48 65.8601 254.65 66.2201 254.98 66.4801C255.32 66.7501 255.79 66.8801 256.4 66.8801C257.01 66.8801 257.48 66.7501 257.88 66.4801C258.28 66.2101 258.58 65.8301 258.78 65.3201L258.97 65.7701C258.78 66.2701 258.47 66.6801 258.02 66.9701C257.57 67.2701 257 67.4201 256.31 67.4201ZM258.8 67.3701V65.7901L258.77 65.55V62.9501C258.77 62.3001 258.6 61.8101 258.25 61.4701C257.9 61.1301 257.39 60.9701 256.72 60.9701C256.24 60.9701 255.8 61.0501 255.38 61.2201C254.97 61.3801 254.62 61.5901 254.32 61.8501L253.99 61.3701C254.34 61.0601 254.75 60.8201 255.24 60.6501C255.73 60.4801 256.24 60.3901 256.77 60.3901C257.63 60.3901 258.29 60.6101 258.75 61.0401C259.21 61.4701 259.44 62.1201 259.44 62.9801V67.3801H258.8V67.3701Z" fill="white"/>
<path d="M265 67.4201C264.41 67.4201 263.89 67.3101 263.46 67.0901C263.03 66.8701 262.69 66.5501 262.46 66.1101C262.23 65.6701 262.11 65.1301 262.11 64.4801V60.4301H262.77V64.4301C262.77 65.2101 262.97 65.8001 263.37 66.2101C263.77 66.6201 264.33 66.8201 265.06 66.8201C265.58 66.8201 266.03 66.7101 266.42 66.4901C266.8 66.2701 267.09 65.9601 267.3 65.5501C267.5 65.1501 267.61 64.6701 267.61 64.1201V60.4301H268.27V67.3701H267.63V65.4401L267.72 65.6701C267.52 66.2101 267.18 66.6401 266.7 66.9501C266.22 67.2601 265.66 67.4201 265.01 67.4201H265Z" fill="white"/>
<path d="M269.93 61.0001V60.4301H274.08V61.0001H269.93ZM273.09 67.4201C272.48 67.4201 272.01 67.2501 271.69 66.9101C271.37 66.5701 271.21 66.1101 271.21 65.5301V58.9101H271.87V65.4601C271.87 65.9001 271.98 66.2401 272.2 66.4801C272.42 66.7201 272.74 66.8401 273.16 66.8401C273.58 66.8401 273.95 66.7101 274.24 66.4601L274.52 66.9201C274.34 67.0901 274.13 67.2101 273.88 67.2901C273.63 67.3701 273.37 67.4101 273.1 67.4101L273.09 67.4201Z" fill="white"/>
<path d="M278.82 67.4201C278.16 67.4201 277.56 67.2701 277.05 66.9701C276.53 66.6701 276.12 66.2501 275.81 65.7201C275.5 65.1901 275.35 64.5801 275.35 63.9001C275.35 63.2201 275.5 62.6001 275.81 62.0701C276.12 61.5401 276.53 61.13 277.05 60.83C277.57 60.53 278.16 60.3801 278.82 60.3801C279.48 60.3801 280.08 60.53 280.6 60.83C281.12 61.13 281.53 61.5401 281.84 62.0701C282.14 62.6001 282.29 63.2101 282.29 63.9001C282.29 64.5901 282.14 65.1901 281.84 65.7201C281.54 66.2501 281.13 66.6701 280.6 66.9701C280.07 67.2701 279.48 67.4201 278.82 67.4201ZM278.82 66.8201C279.35 66.8201 279.83 66.7001 280.25 66.4601C280.68 66.2201 281.01 65.8701 281.25 65.4301C281.49 64.9901 281.61 64.4801 281.61 63.9001C281.61 63.3201 281.49 62.8001 281.25 62.3701C281.01 61.9301 280.68 61.5901 280.25 61.3501C279.83 61.1101 279.35 60.9801 278.82 60.9801C278.29 60.9801 277.81 61.1001 277.39 61.3501C276.97 61.6001 276.64 61.9301 276.39 62.3701C276.15 62.8101 276.02 63.3201 276.02 63.9001C276.02 64.4801 276.14 64.9801 276.39 65.4301C276.64 65.8801 276.97 66.2201 277.39 66.4601C277.81 66.7001 278.29 66.8201 278.82 66.8201Z" fill="white"/>
<path d="M287.73 60.3801C288.3 60.3801 288.79 60.4901 289.21 60.7101C289.63 60.9301 289.96 61.2601 290.19 61.6901C290.42 62.1301 290.54 62.6701 290.54 63.3201V67.3701H289.88V63.3701C289.88 62.5901 289.68 62.0001 289.29 61.5901C288.9 61.1801 288.34 60.9801 287.64 60.9801C287.1 60.9801 286.63 61.0901 286.23 61.3101C285.83 61.5301 285.53 61.8401 285.32 62.2401C285.11 62.6401 285.01 63.1201 285.01 63.6801V67.3701H284.35V60.4301H284.99V62.36L284.9 62.1501C285.11 61.6001 285.46 61.1701 285.95 60.8501C286.44 60.5301 287.04 60.3801 287.74 60.3801H287.73Z" fill="white"/>
<path d="M296 67.4201C295.34 67.4201 294.74 67.2701 294.23 66.9701C293.71 66.6701 293.3 66.2501 292.99 65.7201C292.68 65.1901 292.53 64.5801 292.53 63.9001C292.53 63.2201 292.68 62.6001 292.99 62.0701C293.3 61.5401 293.71 61.13 294.23 60.83C294.75 60.53 295.34 60.3801 296 60.3801C296.66 60.3801 297.26 60.53 297.78 60.83C298.3 61.13 298.71 61.5401 299.02 62.0701C299.32 62.6001 299.47 63.2101 299.47 63.9001C299.47 64.5901 299.32 65.1901 299.02 65.7201C298.72 66.2501 298.31 66.6701 297.78 66.9701C297.25 67.2701 296.66 67.4201 296 67.4201ZM296 66.8201C296.53 66.8201 297.01 66.7001 297.43 66.4601C297.86 66.2201 298.19 65.8701 298.43 65.4301C298.67 64.9901 298.79 64.4801 298.79 63.9001C298.79 63.3201 298.67 62.8001 298.43 62.3701C298.19 61.9301 297.86 61.5901 297.43 61.3501C297.01 61.1101 296.53 60.9801 296 60.9801C295.47 60.9801 294.99 61.1001 294.57 61.3501C294.15 61.6001 293.82 61.9301 293.57 62.3701C293.33 62.8101 293.2 63.3201 293.2 63.9001C293.2 64.4801 293.32 64.9801 293.57 65.4301C293.82 65.8801 294.15 66.2201 294.57 66.4601C294.99 66.7001 295.47 66.8201 296 66.8201Z" fill="white"/>
<path d="M310.16 60.3801C310.72 60.3801 311.2 60.4901 311.61 60.7101C312.02 60.9301 312.34 61.2601 312.57 61.6901C312.8 62.1301 312.92 62.6701 312.92 63.3201V67.3701H312.26V63.3701C312.26 62.5901 312.07 62.0001 311.69 61.5901C311.31 61.1801 310.78 60.9801 310.1 60.9801C309.58 60.9801 309.13 61.0901 308.74 61.3101C308.36 61.5301 308.07 61.8401 307.86 62.2401C307.66 62.6401 307.55 63.1201 307.55 63.6801V67.3701H306.89V63.3701C306.89 62.5901 306.7 62.0001 306.32 61.5901C305.94 61.1801 305.41 60.9801 304.73 60.9801C304.21 60.9801 303.76 61.0901 303.37 61.3101C302.99 61.5301 302.7 61.8401 302.49 62.2401C302.29 62.6401 302.18 63.1201 302.18 63.6801V67.3701H301.52V60.4301H302.16V62.3401L302.07 62.1301C302.27 61.5901 302.62 61.1601 303.09 60.8501C303.57 60.5401 304.14 60.3801 304.82 60.3801C305.5 60.3801 306.09 60.5601 306.57 60.9001C307.04 61.2501 307.34 61.7701 307.47 62.4601L307.24 62.3701C307.43 61.7801 307.78 61.3001 308.29 60.9301C308.8 60.5601 309.43 60.3801 310.16 60.3801Z" fill="white"/>
<path d="M318.37 67.4201C317.71 67.4201 317.11 67.2701 316.6 66.9701C316.08 66.6701 315.67 66.2501 315.36 65.7201C315.05 65.1901 314.9 64.5801 314.9 63.9001C314.9 63.2201 315.05 62.6001 315.36 62.0701C315.67 61.5401 316.08 61.13 316.6 60.83C317.12 60.53 317.71 60.3801 318.37 60.3801C319.03 60.3801 319.63 60.53 320.15 60.83C320.67 61.13 321.08 61.5401 321.39 62.0701C321.69 62.6001 321.84 63.2101 321.84 63.9001C321.84 64.5901 321.69 65.1901 321.39 65.7201C321.09 66.2501 320.68 66.6701 320.15 66.9701C319.62 67.2701 319.03 67.4201 318.37 67.4201ZM318.37 66.8201C318.9 66.8201 319.38 66.7001 319.8 66.4601C320.23 66.2201 320.56 65.8701 320.8 65.4301C321.04 64.9901 321.16 64.4801 321.16 63.9001C321.16 63.3201 321.04 62.8001 320.8 62.3701C320.56 61.9301 320.23 61.5901 319.8 61.3501C319.38 61.1101 318.9 60.9801 318.37 60.9801C317.84 60.9801 317.36 61.1001 316.94 61.3501C316.52 61.6001 316.19 61.9301 315.94 62.3701C315.7 62.8101 315.57 63.3201 315.57 63.9001C315.57 64.4801 315.69 64.9801 315.94 65.4301C316.19 65.8801 316.52 66.2201 316.94 66.4601C317.36 66.7001 317.84 66.8201 318.37 66.8201Z" fill="white"/>
<path d="M326.72 67.4201C326.13 67.4201 325.61 67.3101 325.18 67.0901C324.75 66.8701 324.41 66.5501 324.18 66.1101C323.95 65.6701 323.83 65.1301 323.83 64.4801V60.4301H324.49V64.4301C324.49 65.2101 324.69 65.8001 325.09 66.2101C325.49 66.6201 326.05 66.8201 326.78 66.8201C327.3 66.8201 327.75 66.7101 328.14 66.4901C328.52 66.2701 328.81 65.9601 329.02 65.5501C329.22 65.1501 329.33 64.6701 329.33 64.1201V60.4301H329.99V67.3701H329.35V65.4401L329.44 65.6701C329.24 66.2101 328.9 66.6401 328.42 66.9501C327.94 67.2601 327.38 67.4201 326.73 67.4201H326.72Z" fill="white"/>
<path d="M334.54 67.4201C333.96 67.4201 333.43 67.3401 332.93 67.1701C332.43 67.0001 332.04 66.7901 331.77 66.5301L332.08 66.0001C332.35 66.2301 332.7 66.4301 333.14 66.5901C333.58 66.7501 334.06 66.8401 334.58 66.8401C335.31 66.8401 335.83 66.7201 336.15 66.4801C336.47 66.2401 336.63 65.9301 336.63 65.5401C336.63 65.2601 336.55 65.0301 336.38 64.8701C336.21 64.7101 336 64.5801 335.72 64.4901C335.45 64.4001 335.14 64.33 334.82 64.2701C334.49 64.2101 334.16 64.15 333.84 64.08C333.51 64.01 333.21 63.9101 332.94 63.7701C332.67 63.63 332.45 63.4501 332.28 63.2201C332.12 62.9901 332.03 62.6701 332.03 62.2801C332.03 61.9301 332.13 61.6101 332.32 61.3201C332.52 61.0401 332.81 60.8101 333.2 60.6301C333.59 60.4601 334.08 60.3701 334.66 60.3701C335.09 60.3701 335.53 60.4301 335.97 60.5601C336.41 60.6801 336.77 60.85 337.04 61.05L336.73 61.58C336.44 61.36 336.11 61.2001 335.75 61.1001C335.39 61.0001 335.02 60.9501 334.65 60.9501C333.98 60.9501 333.48 61.0701 333.17 61.3201C332.86 61.5701 332.7 61.8801 332.7 62.2501C332.7 62.5401 332.78 62.7801 332.95 62.9501C333.11 63.1201 333.33 63.2601 333.61 63.3501C333.89 63.4401 334.19 63.52 334.51 63.58C334.84 63.64 335.17 63.7001 335.49 63.7701C335.82 63.84 336.12 63.9401 336.39 64.0701C336.66 64.2001 336.88 64.3801 337.05 64.6001C337.22 64.8201 337.3 65.1301 337.3 65.5101C337.3 65.8901 337.2 66.2201 336.99 66.5101C336.78 66.8001 336.47 67.0201 336.07 67.1701C335.66 67.3301 335.16 67.4101 334.57 67.4101L334.54 67.4201Z" fill="white"/>
<path d="M141.3 80.6201C140.63 80.6201 140.03 80.4701 139.5 80.1701C138.97 79.8701 138.56 79.4501 138.25 78.9201C137.94 78.3901 137.79 77.7801 137.79 77.1001C137.79 76.4201 137.94 75.8001 138.25 75.2701C138.56 74.7401 138.97 74.3301 139.5 74.0301C140.03 73.7301 140.63 73.5801 141.3 73.5801C141.86 73.5801 142.36 73.6901 142.82 73.9001C143.28 74.1101 143.65 74.4301 143.93 74.8601L143.44 75.2201C143.19 74.8701 142.88 74.6001 142.51 74.4401C142.14 74.2801 141.73 74.1901 141.3 74.1901C140.76 74.1901 140.27 74.3101 139.85 74.5601C139.42 74.8001 139.08 75.1401 138.84 75.5801C138.6 76.0201 138.47 76.5301 138.47 77.1101C138.47 77.6901 138.59 78.2101 138.84 78.6401C139.09 79.0701 139.42 79.4201 139.85 79.6601C140.28 79.9001 140.76 80.0201 141.3 80.0201C141.73 80.0201 142.14 79.9401 142.51 79.7701C142.88 79.6001 143.19 79.3401 143.44 78.9901L143.93 79.3501C143.65 79.7801 143.28 80.0901 142.82 80.3101C142.36 80.5201 141.86 80.6301 141.3 80.6301V80.6201Z" fill="white"/>
<path d="M145.81 80.5701V70.7101H146.47V80.5701H145.81Z" fill="white"/>
<path d="M151.99 80.6201C151.33 80.6201 150.73 80.4701 150.22 80.1701C149.7 79.8701 149.29 79.4501 148.98 78.9201C148.67 78.3901 148.52 77.7801 148.52 77.1001C148.52 76.4201 148.67 75.8001 148.98 75.2701C149.29 74.7401 149.7 74.3301 150.22 74.0301C150.74 73.7301 151.33 73.5801 151.99 73.5801C152.65 73.5801 153.25 73.7301 153.77 74.0301C154.29 74.3301 154.7 74.7401 155.01 75.2701C155.31 75.8001 155.46 76.4101 155.46 77.1001C155.46 77.7901 155.31 78.3901 155.01 78.9201C154.71 79.4501 154.3 79.8701 153.77 80.1701C153.24 80.4701 152.65 80.6201 151.99 80.6201ZM151.99 80.0201C152.52 80.0201 153 79.9001 153.42 79.6601C153.85 79.4201 154.18 79.0701 154.42 78.6301C154.66 78.1901 154.78 77.6801 154.78 77.1001C154.78 76.5201 154.66 76.0001 154.42 75.5701C154.18 75.1301 153.85 74.7901 153.42 74.5501C153 74.3101 152.52 74.1801 151.99 74.1801C151.46 74.1801 150.98 74.3001 150.56 74.5501C150.14 74.8001 149.81 75.1301 149.56 75.5701C149.32 76.0101 149.19 76.5201 149.19 77.1001C149.19 77.6801 149.31 78.1801 149.56 78.6301C149.81 79.0801 150.14 79.4201 150.56 79.6601C150.98 79.9001 151.46 80.0201 151.99 80.0201Z" fill="white"/>
<path d="M160.33 80.6201C159.74 80.6201 159.22 80.5101 158.79 80.2901C158.36 80.0701 158.02 79.7501 157.79 79.3101C157.56 78.8701 157.44 78.3301 157.44 77.6801V73.6301H158.1V77.6301C158.1 78.4101 158.3 79.0001 158.7 79.4101C159.1 79.8201 159.66 80.0201 160.39 80.0201C160.91 80.0201 161.36 79.9101 161.75 79.6901C162.13 79.4701 162.42 79.1601 162.63 78.7501C162.83 78.3501 162.94 77.8701 162.94 77.3201V73.6301H163.6V80.5701H162.96V78.6401L163.05 78.8701C162.85 79.4101 162.51 79.8401 162.03 80.1501C161.55 80.4601 160.99 80.6201 160.34 80.6201H160.33Z" fill="white"/>
<path d="M169.07 80.6201C168.42 80.6201 167.84 80.4701 167.32 80.1701C166.8 79.8701 166.39 79.4601 166.09 78.9301C165.79 78.4001 165.64 77.7901 165.64 77.1001C165.64 76.4101 165.79 75.7901 166.09 75.2601C166.39 74.7301 166.8 74.3201 167.32 74.0201C167.84 73.7201 168.42 73.5701 169.07 73.5701C169.68 73.5701 170.23 73.7101 170.72 74.0001C171.21 74.2901 171.6 74.6901 171.89 75.2101C172.18 75.7301 172.32 76.3601 172.32 77.1001C172.32 77.8401 172.18 78.4401 171.9 78.9701C171.62 79.5001 171.23 79.9101 170.74 80.1901C170.25 80.4701 169.69 80.6201 169.07 80.6201ZM169.11 80.0201C169.64 80.0201 170.12 79.9001 170.54 79.6601C170.96 79.4201 171.29 79.0701 171.54 78.6301C171.79 78.1901 171.91 77.6801 171.91 77.1001C171.91 76.5201 171.79 76.0001 171.54 75.5701C171.3 75.1301 170.96 74.7901 170.54 74.5501C170.12 74.3101 169.64 74.1801 169.11 74.1801C168.58 74.1801 168.1 74.3001 167.68 74.5501C167.26 74.8001 166.93 75.1301 166.68 75.5701C166.44 76.0101 166.31 76.5201 166.31 77.1001C166.31 77.6801 166.43 78.1801 166.68 78.6301C166.93 79.0801 167.26 79.4201 167.68 79.6601C168.1 79.9001 168.58 80.0201 169.11 80.0201ZM171.92 80.5701V78.3001L172.04 77.0901L171.91 75.8801V70.7101H172.57V80.5701H171.92Z" fill="white"/>
<path d="M174.79 77.3001V76.7001H178.21V77.3001H174.79Z" fill="white"/>
<path d="M179.43 74.2001V73.6301H183.58V74.2001H179.43ZM182.59 80.6201C181.98 80.6201 181.51 80.4501 181.19 80.1101C180.87 79.7701 180.71 79.3101 180.71 78.7301V72.1101H181.37V78.6601C181.37 79.1001 181.48 79.4401 181.7 79.6801C181.92 79.9201 182.24 80.0401 182.66 80.0401C183.08 80.0401 183.45 79.9101 183.74 79.6601L184.02 80.1201C183.84 80.2901 183.63 80.4101 183.38 80.4901C183.13 80.5701 182.87 80.6101 182.6 80.6101L182.59 80.6201Z" fill="white"/>
<path d="M188.31 80.6201C187.65 80.6201 187.05 80.4701 186.54 80.1701C186.02 79.8701 185.61 79.4501 185.3 78.9201C184.99 78.3901 184.84 77.7801 184.84 77.1001C184.84 76.4201 184.99 75.8001 185.3 75.2701C185.61 74.7401 186.02 74.3301 186.54 74.0301C187.06 73.7301 187.65 73.5801 188.31 73.5801C188.97 73.5801 189.57 73.7301 190.09 74.0301C190.61 74.3301 191.02 74.7401 191.33 75.2701C191.63 75.8001 191.78 76.4101 191.78 77.1001C191.78 77.7901 191.63 78.3901 191.33 78.9201C191.03 79.4501 190.62 79.8701 190.09 80.1701C189.56 80.4701 188.97 80.6201 188.31 80.6201ZM188.31 80.0201C188.84 80.0201 189.32 79.9001 189.74 79.6601C190.17 79.4201 190.5 79.0701 190.74 78.6301C190.98 78.1901 191.1 77.6801 191.1 77.1001C191.1 76.5201 190.98 76.0001 190.74 75.5701C190.5 75.1301 190.17 74.7901 189.74 74.5501C189.32 74.3101 188.84 74.1801 188.31 74.1801C187.78 74.1801 187.3 74.3001 186.88 74.5501C186.46 74.8001 186.13 75.1301 185.88 75.5701C185.64 76.0101 185.51 76.5201 185.51 77.1001C185.51 77.6801 185.63 78.1801 185.88 78.6301C186.13 79.0801 186.46 79.4201 186.88 79.6601C187.3 79.9001 187.78 80.0201 188.31 80.0201Z" fill="white"/>
<path d="M193.39 77.3001V76.7001H196.81V77.3001H193.39Z" fill="white"/>
<path d="M201.99 80.6201C201.29 80.6201 200.67 80.4701 200.14 80.1701C199.6 79.8701 199.18 79.4501 198.88 78.9201C198.58 78.3901 198.42 77.7801 198.42 77.1001C198.42 76.4201 198.56 75.8001 198.85 75.2701C199.14 74.7401 199.54 74.3301 200.04 74.0301C200.54 73.7301 201.11 73.5801 201.74 73.5801C202.37 73.5801 202.93 73.7301 203.43 74.0201C203.93 74.3101 204.33 74.7201 204.61 75.2501C204.9 75.7801 205.04 76.3901 205.04 77.0801C205.04 77.1101 205.04 77.1401 205.04 77.1701C205.04 77.2001 205.04 77.2301 205.04 77.2701H198.92V76.7501H204.69L204.42 77.0001C204.42 76.4601 204.32 75.9701 204.08 75.5401C203.85 75.1101 203.53 74.7701 203.13 74.5301C202.73 74.2901 202.27 74.1701 201.75 74.1701C201.23 74.1701 200.78 74.2901 200.37 74.5301C199.97 74.7701 199.65 75.1101 199.42 75.5401C199.19 75.9701 199.07 76.4601 199.07 77.0101V77.1301C199.07 77.7001 199.2 78.2001 199.45 78.6401C199.7 79.0801 200.05 79.4201 200.49 79.6601C200.93 79.9001 201.44 80.0201 202 80.0201C202.44 80.0201 202.86 79.9401 203.24 79.7801C203.62 79.6201 203.95 79.3801 204.22 79.0501L204.61 79.4901C204.31 79.8601 203.93 80.1401 203.47 80.3301C203.01 80.5201 202.52 80.6201 201.99 80.6201Z" fill="white"/>
<path d="M209.77 80.6201C209.12 80.6201 208.54 80.4701 208.02 80.1701C207.5 79.8701 207.09 79.4601 206.79 78.9301C206.49 78.4001 206.34 77.7901 206.34 77.1001C206.34 76.4101 206.49 75.7901 206.79 75.2601C207.09 74.7301 207.5 74.3201 208.02 74.0201C208.54 73.7201 209.12 73.5701 209.77 73.5701C210.38 73.5701 210.93 73.7101 211.42 74.0001C211.91 74.2901 212.3 74.6901 212.59 75.2101C212.88 75.7301 213.02 76.3601 213.02 77.1001C213.02 77.8401 212.88 78.4401 212.6 78.9701C212.32 79.5001 211.93 79.9101 211.44 80.1901C210.95 80.4701 210.39 80.6201 209.77 80.6201ZM209.81 80.0201C210.34 80.0201 210.82 79.9001 211.24 79.6601C211.66 79.4201 211.99 79.0701 212.24 78.6301C212.49 78.1901 212.61 77.6801 212.61 77.1001C212.61 76.5201 212.49 76.0001 212.24 75.5701C212 75.1301 211.66 74.7901 211.24 74.5501C210.82 74.3101 210.34 74.1801 209.81 74.1801C209.28 74.1801 208.8 74.3001 208.38 74.5501C207.96 74.8001 207.63 75.1301 207.38 75.5701C207.14 76.0101 207.01 76.5201 207.01 77.1001C207.01 77.6801 207.13 78.1801 207.38 78.6301C207.63 79.0801 207.96 79.4201 208.38 79.6601C208.8 79.9001 209.28 80.0201 209.81 80.0201ZM212.62 80.5701V78.3001L212.74 77.0901L212.61 75.8801V70.7101H213.27V80.5701H212.62Z" fill="white"/>
<path d="M218.77 80.3101C218.11 80.3101 217.53 80.1701 217.01 79.8801C216.49 79.5901 216.08 79.1901 215.77 78.6801C215.46 78.1701 215.31 77.5901 215.31 76.9301C215.31 76.2701 215.46 75.6801 215.77 75.1801C216.08 74.6701 216.49 74.2801 217.01 74.0001C217.53 73.7201 218.11 73.5701 218.77 73.5701C219.43 73.5701 219.96 73.7001 220.46 73.9801C220.96 74.2501 221.36 74.6401 221.65 75.1401C221.94 75.6401 222.09 76.2401 222.09 76.9401C222.09 77.6401 221.94 78.2301 221.65 78.7301C221.36 79.2401 220.96 79.6301 220.46 79.9001C219.96 80.1701 219.4 80.3101 218.77 80.3101ZM218.96 83.2001C218.33 83.2001 217.73 83.1001 217.17 82.9101C216.6 82.7101 216.14 82.4501 215.79 82.1001L216.15 81.6001C216.5 81.9201 216.91 82.1701 217.39 82.3401C217.87 82.5201 218.39 82.6101 218.95 82.6101C219.88 82.6101 220.56 82.3901 221 81.9601C221.44 81.5301 221.66 80.8401 221.66 79.9101V77.9801L221.79 76.9401L221.68 75.9001V73.6301H222.32V79.8201C222.32 80.9801 222.04 81.8301 221.48 82.3801C220.92 82.9201 220.08 83.2001 218.96 83.2001ZM218.82 79.7201C219.38 79.7201 219.87 79.6001 220.3 79.3701C220.73 79.1401 221.06 78.8101 221.3 78.3901C221.54 77.9701 221.66 77.4901 221.66 76.9501C221.66 76.4101 221.54 75.9201 221.3 75.5001C221.06 75.0801 220.72 74.7601 220.3 74.5301C219.87 74.3001 219.38 74.1801 218.82 74.1801C218.26 74.1801 217.79 74.3001 217.37 74.5301C216.94 74.7601 216.6 75.0801 216.36 75.5001C216.12 75.9201 215.99 76.4001 215.99 76.9501C215.99 77.5001 216.11 77.9701 216.36 78.3901C216.6 78.8101 216.94 79.1401 217.37 79.3701C217.8 79.6001 218.28 79.7201 218.82 79.7201Z" fill="white"/>
<path d="M227.95 80.6201C227.25 80.6201 226.63 80.4701 226.1 80.1701C225.56 79.8701 225.14 79.4501 224.84 78.9201C224.54 78.3901 224.38 77.7801 224.38 77.1001C224.38 76.4201 224.52 75.8001 224.81 75.2701C225.1 74.7401 225.5 74.3301 226 74.0301C226.5 73.7301 227.07 73.5801 227.7 73.5801C228.33 73.5801 228.89 73.7301 229.39 74.0201C229.89 74.3101 230.29 74.7201 230.57 75.2501C230.86 75.7801 231 76.3901 231 77.0801C231 77.1101 231 77.1401 231 77.1701C231 77.2001 231 77.2301 231 77.2701H224.88V76.7501H230.65L230.38 77.0001C230.38 76.4601 230.28 75.9701 230.04 75.5401C229.81 75.1101 229.49 74.7701 229.09 74.5301C228.69 74.2901 228.23 74.1701 227.71 74.1701C227.19 74.1701 226.74 74.2901 226.33 74.5301C225.93 74.7701 225.61 75.1101 225.38 75.5401C225.15 75.9701 225.03 76.4601 225.03 77.0101V77.1301C225.03 77.7001 225.16 78.2001 225.41 78.6401C225.66 79.0801 226.01 79.4201 226.45 79.6601C226.89 79.9001 227.4 80.0201 227.96 80.0201C228.4 80.0201 228.82 79.9401 229.2 79.7801C229.58 79.6201 229.91 79.3801 230.18 79.0501L230.57 79.4901C230.27 79.8601 229.89 80.1401 229.43 80.3301C228.97 80.5201 228.48 80.6201 227.95 80.6201Z" fill="white"/>
<path d="M236.48 80.5701V73.6301H237.12V75.5301L237.05 75.3201C237.24 74.7601 237.57 74.3301 238.03 74.0301C238.49 73.7301 239.07 73.5801 239.76 73.5801V74.2301C239.76 74.2301 239.71 74.2301 239.68 74.2301C239.65 74.2301 239.63 74.2301 239.6 74.2301C238.83 74.2301 238.23 74.4701 237.79 74.9501C237.36 75.4301 237.14 76.1001 237.14 76.9601V80.5701H236.48Z" fill="white"/>
<path d="M244.35 80.6201C243.65 80.6201 243.03 80.4701 242.5 80.1701C241.96 79.8701 241.54 79.4501 241.24 78.9201C240.94 78.3901 240.78 77.7801 240.78 77.1001C240.78 76.4201 240.92 75.8001 241.21 75.2701C241.5 74.7401 241.9 74.3301 242.4 74.0301C242.9 73.7301 243.47 73.5801 244.1 73.5801C244.73 73.5801 245.29 73.7301 245.79 74.0201C246.29 74.3101 246.69 74.7201 246.97 75.2501C247.26 75.7801 247.4 76.3901 247.4 77.0801C247.4 77.1101 247.4 77.1401 247.4 77.1701C247.4 77.2001 247.4 77.2301 247.4 77.2701H241.28V76.7501H247.05L246.78 77.0001C246.78 76.4601 246.68 75.9701 246.44 75.5401C246.21 75.1101 245.89 74.7701 245.49 74.5301C245.09 74.2901 244.63 74.1701 244.11 74.1701C243.59 74.1701 243.14 74.2901 242.73 74.5301C242.33 74.7701 242.01 75.1101 241.78 75.5401C241.55 75.9701 241.43 76.4601 241.43 77.0101V77.1301C241.43 77.7001 241.56 78.2001 241.81 78.6401C242.06 79.0801 242.41 79.4201 242.85 79.6601C243.29 79.9001 243.8 80.0201 244.36 80.0201C244.8 80.0201 245.22 79.9401 245.6 79.7801C245.98 79.6201 246.31 79.3801 246.58 79.0501L246.97 79.4901C246.67 79.8601 246.29 80.1401 245.83 80.3301C245.37 80.5201 244.88 80.6201 244.35 80.6201Z" fill="white"/>
<path d="M251.22 80.6201C250.64 80.6201 250.11 80.5401 249.61 80.3701C249.11 80.2001 248.72 79.9901 248.45 79.7301L248.76 79.2001C249.03 79.4301 249.38 79.6301 249.82 79.7901C250.26 79.9501 250.74 80.0401 251.26 80.0401C251.99 80.0401 252.51 79.9201 252.83 79.6801C253.15 79.4401 253.31 79.1301 253.31 78.7401C253.31 78.4601 253.23 78.2301 253.06 78.0701C252.89 77.9101 252.68 77.7801 252.4 77.6901C252.13 77.6001 251.82 77.5301 251.5 77.4701C251.17 77.4101 250.84 77.3501 250.52 77.2801C250.19 77.2101 249.89 77.1101 249.62 76.9701C249.35 76.8301 249.13 76.6501 248.96 76.4201C248.8 76.1901 248.71 75.8701 248.71 75.4801C248.71 75.1301 248.81 74.8101 249 74.5201C249.2 74.2401 249.49 74.0101 249.88 73.8301C250.27 73.6601 250.76 73.5701 251.34 73.5701C251.77 73.5701 252.21 73.6301 252.65 73.7601C253.09 73.8801 253.45 74.0501 253.72 74.2501L253.41 74.7801C253.12 74.5601 252.79 74.4001 252.43 74.3001C252.07 74.2001 251.7 74.1501 251.33 74.1501C250.66 74.1501 250.16 74.2701 249.85 74.5201C249.54 74.7701 249.38 75.0801 249.38 75.4501C249.38 75.7401 249.46 75.9801 249.63 76.1501C249.79 76.3201 250.01 76.4601 250.29 76.5501C250.57 76.6401 250.87 76.7201 251.19 76.7801C251.52 76.8401 251.85 76.9001 252.17 76.9701C252.5 77.0401 252.8 77.1401 253.07 77.2701C253.34 77.4001 253.56 77.5801 253.73 77.8001C253.9 78.0201 253.98 78.3301 253.98 78.7101C253.98 79.0901 253.88 79.4201 253.67 79.7101C253.46 80.0001 253.15 80.2201 252.75 80.3701C252.34 80.5301 251.84 80.6101 251.25 80.6101L251.22 80.6201Z" fill="white"/>
<path d="M258.53 80.6201C257.87 80.6201 257.27 80.4701 256.76 80.1701C256.24 79.8701 255.83 79.4501 255.52 78.9201C255.21 78.3901 255.06 77.7801 255.06 77.1001C255.06 76.4201 255.21 75.8001 255.52 75.2701C255.83 74.7401 256.24 74.3301 256.76 74.0301C257.28 73.7301 257.87 73.5801 258.53 73.5801C259.19 73.5801 259.79 73.7301 260.31 74.0301C260.83 74.3301 261.24 74.7401 261.55 75.2701C261.85 75.8001 262 76.4101 262 77.1001C262 77.7901 261.85 78.3901 261.55 78.9201C261.25 79.4501 260.84 79.8701 260.31 80.1701C259.78 80.4701 259.19 80.6201 258.53 80.6201ZM258.53 80.0201C259.06 80.0201 259.54 79.9001 259.96 79.6601C260.39 79.4201 260.72 79.0701 260.96 78.6301C261.2 78.1901 261.32 77.6801 261.32 77.1001C261.32 76.5201 261.2 76.0001 260.96 75.5701C260.72 75.1301 260.39 74.7901 259.96 74.5501C259.54 74.3101 259.06 74.1801 258.53 74.1801C258 74.1801 257.52 74.3001 257.1 74.5501C256.68 74.8001 256.35 75.1301 256.1 75.5701C255.86 76.0101 255.73 76.5201 255.73 77.1001C255.73 77.6801 255.85 78.1801 256.1 78.6301C256.35 79.0801 256.68 79.4201 257.1 79.6601C257.52 79.9001 258 80.0201 258.53 80.0201Z" fill="white"/>
<path d="M266.87 80.6201C266.28 80.6201 265.76 80.5101 265.33 80.2901C264.9 80.0701 264.56 79.7501 264.33 79.3101C264.1 78.8701 263.98 78.3301 263.98 77.6801V73.6301H264.64V77.6301C264.64 78.4101 264.84 79.0001 265.24 79.4101C265.64 79.8201 266.2 80.0201 266.93 80.0201C267.45 80.0201 267.9 79.9101 268.29 79.6901C268.67 79.4701 268.96 79.1601 269.17 78.7501C269.37 78.3501 269.48 77.8701 269.48 77.3201V73.6301H270.14V80.5701H269.5V78.6401L269.59 78.8701C269.39 79.4101 269.05 79.8401 268.57 80.1501C268.09 80.4601 267.53 80.6201 266.88 80.6201H266.87Z" fill="white"/>
<path d="M272.94 80.5701V73.6301H273.58V75.5301L273.51 75.3201C273.7 74.7601 274.03 74.3301 274.49 74.0301C274.95 73.7301 275.53 73.5801 276.22 73.5801V74.2301C276.22 74.2301 276.17 74.2301 276.14 74.2301C276.11 74.2301 276.09 74.2301 276.06 74.2301C275.29 74.2301 274.69 74.4701 274.25 74.9501C273.82 75.4301 273.6 76.1001 273.6 76.9601V80.5701H272.94Z" fill="white"/>
<path d="M280.74 80.6201C280.07 80.6201 279.47 80.4701 278.94 80.1701C278.41 79.8701 278 79.4501 277.69 78.9201C277.38 78.3901 277.23 77.7801 277.23 77.1001C277.23 76.4201 277.38 75.8001 277.69 75.2701C278 74.7401 278.41 74.3301 278.94 74.0301C279.47 73.7301 280.07 73.5801 280.74 73.5801C281.3 73.5801 281.8 73.6901 282.26 73.9001C282.72 74.1101 283.09 74.4301 283.37 74.8601L282.88 75.2201C282.63 74.8701 282.32 74.6001 281.95 74.4401C281.58 74.2801 281.17 74.1901 280.74 74.1901C280.2 74.1901 279.71 74.3101 279.29 74.5601C278.86 74.8001 278.52 75.1401 278.28 75.5801C278.04 76.0201 277.91 76.5301 277.91 77.1101C277.91 77.6901 278.03 78.2101 278.28 78.6401C278.53 79.0701 278.86 79.4201 279.29 79.6601C279.72 79.9001 280.2 80.0201 280.74 80.0201C281.17 80.0201 281.58 79.9401 281.95 79.7701C282.32 79.6001 282.63 79.3401 282.88 78.9901L283.37 79.3501C283.09 79.7801 282.72 80.0901 282.26 80.3101C281.8 80.5201 281.3 80.6301 280.74 80.6301V80.6201Z" fill="white"/>
<path d="M288.06 80.6201C287.36 80.6201 286.74 80.4701 286.21 80.1701C285.67 79.8701 285.25 79.4501 284.95 78.9201C284.65 78.3901 284.49 77.7801 284.49 77.1001C284.49 76.4201 284.63 75.8001 284.92 75.2701C285.21 74.7401 285.61 74.3301 286.11 74.0301C286.61 73.7301 287.18 73.5801 287.81 73.5801C288.44 73.5801 289 73.7301 289.5 74.0201C290 74.3101 290.4 74.7201 290.68 75.2501C290.97 75.7801 291.11 76.3901 291.11 77.0801C291.11 77.1101 291.11 77.1401 291.11 77.1701C291.11 77.2001 291.11 77.2301 291.11 77.2701H284.99V76.7501H290.76L290.49 77.0001C290.49 76.4601 290.39 75.9701 290.15 75.5401C289.92 75.1101 289.6 74.7701 289.2 74.5301C288.8 74.2901 288.34 74.1701 287.82 74.1701C287.3 74.1701 286.85 74.2901 286.44 74.5301C286.04 74.7701 285.72 75.1101 285.49 75.5401C285.26 75.9701 285.14 76.4601 285.14 77.0101V77.1301C285.14 77.7001 285.27 78.2001 285.52 78.6401C285.77 79.0801 286.12 79.4201 286.56 79.6601C287 79.9001 287.51 80.0201 288.07 80.0201C288.51 80.0201 288.93 79.9401 289.31 79.7801C289.69 79.6201 290.02 79.3801 290.29 79.0501L290.68 79.4901C290.38 79.8601 290 80.1401 289.54 80.3301C289.08 80.5201 288.59 80.6201 288.06 80.6201Z" fill="white"/>
<path d="M294.93 80.6201C294.35 80.6201 293.82 80.5401 293.32 80.3701C292.82 80.2001 292.43 79.9901 292.16 79.7301L292.47 79.2001C292.74 79.4301 293.09 79.6301 293.53 79.7901C293.97 79.9501 294.45 80.0401 294.97 80.0401C295.7 80.0401 296.22 79.9201 296.54 79.6801C296.86 79.4401 297.02 79.1301 297.02 78.7401C297.02 78.4601 296.94 78.2301 296.77 78.0701C296.6 77.9101 296.39 77.7801 296.11 77.6901C295.84 77.6001 295.53 77.5301 295.21 77.4701C294.88 77.4101 294.55 77.3501 294.23 77.2801C293.9 77.2101 293.6 77.1101 293.33 76.9701C293.06 76.8301 292.84 76.6501 292.67 76.4201C292.51 76.1901 292.42 75.8701 292.42 75.4801C292.42 75.1301 292.52 74.8101 292.71 74.5201C292.91 74.2401 293.2 74.0101 293.59 73.8301C293.98 73.6601 294.47 73.5701 295.05 73.5701C295.48 73.5701 295.92 73.6301 296.36 73.7601C296.8 73.8801 297.16 74.0501 297.43 74.2501L297.12 74.7801C296.83 74.5601 296.5 74.4001 296.14 74.3001C295.78 74.2001 295.41 74.1501 295.04 74.1501C294.37 74.1501 293.87 74.2701 293.56 74.5201C293.25 74.7701 293.09 75.0801 293.09 75.4501C293.09 75.7401 293.17 75.9801 293.34 76.1501C293.5 76.3201 293.72 76.4601 294 76.5501C294.28 76.6401 294.58 76.7201 294.9 76.7801C295.23 76.8401 295.56 76.9001 295.88 76.9701C296.21 77.0401 296.51 77.1401 296.78 77.2701C297.05 77.4001 297.27 77.5801 297.44 77.8001C297.61 78.0201 297.69 78.3301 297.69 78.7101C297.69 79.0901 297.59 79.4201 297.38 79.7101C297.17 80.0001 296.86 80.2201 296.46 80.3701C296.05 80.5301 295.55 80.6101 294.96 80.6101L294.93 80.6201Z" fill="white"/>
</svg>
